# xmcd
#
# Track frame offsets: 
#        150
#        2240
#        14270
#        20880
#        22575
#        23615
#        40150
#        52080
#        66875
#        68775
#        70095
#        73005
#        73915
#        88100
#        90085
#        103150
#        104710
#        115975
#        117995
#        119050
#        129775
#        130825
#        133670
#        136710
#        157000
#        164285
#        172910
#        176975
#        178175
#        197395
#        200010
#        207845
#        226445
#        231830
#
# Disc length: 3327 seconds
#
# Revision: 0
# Processed by: cddbd v1.5.2PL0 Copyright (c) Steve Scherf et al.
# Submitted via: ExactAudioCopy v0.95b3
#
DISCID=e70cfd22
DTITLE=The Byrds  - The Byrds Journals vol. 3  FLAC
DYEAR=1900
DGENRE=
TTITLE0=The World Turns All Around Her (Take 1)
TTITLE1=The World Turns All Around Her (Take 2)
TTITLE2=The World Turns All Around Her (Take 3)
TTITLE3=The World Turns All Around Her (Take 4)
TTITLE4=The World Turns All Around Her (Take 5)
TTITLE5=The World Turns All Around Her (Take 6)
TTITLE6=The World Turns All Around Her (Take 7)
TTITLE7=The World Turns All Around Her (Take 8)
TTITLE8=The World Turns All Around Her (Take 9)
TTITLE9=The World Turns All Around Her (Take 10)
TTITLE10=The World Turns All Around Her (Take 11)
TTITLE11=The World Turns All Around Her (Take 12)
TTITLE12=The World Turns All Around Her (Take 13)
TTITLE13=The World Turns All Around Her (Take 14)
TTITLE14=The World Turns All Around Her (Take 15)
TTITLE15=The World Turns All Around Her (Take 16)
TTITLE16=The World Turns All Around Her (Take 17)
TTITLE17=The World Turns All Around Her (Take 18)
TTITLE18=The World Turns All Around Her (Take 19)
TTITLE19=The World Turns All Around Her (Take 20)
TTITLE20=It's All Over Now, Baby Blue (Version 2, Take 1)
TTITLE21=It's All Over Now, Baby Blue (Version 2, Take 2)
TTITLE22=It's All Over Now, Baby Blue (Version 2, Take 3)
TTITLE23=It's All Over Now, Baby Blue (Version 2, Take 4)
TTITLE24=It's All Over Now, Baby Blue (Version 2, Taje 5)
TTITLE25=It's All Over Now, Baby Blue (Version 2, Take 6)
TTITLE26=It's All Over Now, Baby Blue (Version 2, Take 7)
TTITLE27=It's All Over Now, Baby Blue (Version 2, Take 8)
TTITLE28=It's All Over Now, Baby Blue (Version 2, Take 9)
TTITLE29=It's All Over Now, Baby Blue (Version 2, Take 10)
TTITLE30=It's All Over Now, B`ây Blue (Version 2, Take 11)
TTITLE31=It's All Over Now, Baby Blue (Version 2, Take 12)
TTITLE32=It's All Over Now, Baby Blue (Version 2, Take 13)
TTITLE33=It's All Over Now, Baby Blue (Version 2, Take 14)
EXTD=
EXTT0=
EXTT1=
EXTT2=
EXTT3=
EXTT4=
EXTT5=
EXTT6=
EXTT7=
EXTT8=
EXTT9=
EXTT10=
EXTT11=
EXTT12=
EXTT13=
EXTT14=
EXTT15=
EXTT16=
EXTT17=
EXTT18=
EXTT19=
EXTT20=
EXTT21=
EXTT22=
EXTT23=
EXTT24=
EXTT25=
EXTT26=
EXTT27=
EXTT28=
EXTT29=
EXTT30=
EXTT31=
EXTT32=
EXTT33=
PLAYORDER=
